<svg width="25" height="23" viewBox="0 0 25 23" fill="none" xmlns="http://www.w3.org/2000/svg">
<path id="Vector" d="M21.75 5.45833V3.04167C21.75 1.70887 20.6661 0.625 19.3333 0.625H3.625C1.62642 0.625 0 2.25142 0 4.25V18.75C0 21.4095 2.16775 22.375 3.625 22.375H21.75C23.0828 22.375 24.1667 21.2911 24.1667 19.9583V7.875C24.1667 6.54221 23.0828 5.45833 21.75 5.45833ZM19.3333 16.3333H16.9167V11.5H19.3333V16.3333ZM3.625 5.45833C3.31388 5.44442 3.02011 5.31103 2.80488 5.08595C2.58964 4.86086 2.46951 4.56143 2.46951 4.25C2.46951 3.93857 2.58964 3.63914 2.80488 3.41405C3.02011 3.18897 3.31388 3.05558 3.625 3.04167H19.3333V5.45833H3.625Z" fill="#64DF46"/>
</svg>
